<?xml version="1.0" standalone="no"?>
<!DOCTYPE svg PUBLIC "-//W3C//DTD SVG 20010904//EN"
  "http://www.w3.org/TR/2001/REC-SVG-20010904/DTD/svg10.dtd">
<svg width="12" height="12">
  <circle cx="0" cy="0" r="1" fill="rgba(255,255,255,0)"/>
  <circle cx="1" cy="0" r="1" fill="rgba(255,255,255,0)"/>
  <circle cx="2" cy="0" r="1" fill="rgba(255,255,255,0)"/>
  <circle cx="3" cy="0" r="1" fill="rgba(255,255,255,0)"/>
  <circle cx="4" cy="0" r="1" fill="rgba(255,255,255,0)"/>
  <circle cx="5" cy="0" r="1" fill="rgba(255,255,255,0)"/>
  <circle cx="6" cy="0" r="1" fill="rgba(255,255,255,0)"/>
  <circle cx="7" cy="0" r="1" fill="rgba(255,255,255,0)"/>
  <circle cx="8" cy="0" r="1" fill="rgba(255,255,255,0)"/>
  <circle cx="9" cy="0" r="1" fill="rgba(255,255,255,0)"/>
  <circle cx="10" cy="0" r="1" fill="rgba(255,255,255,0)"/>
  <circle cx="11" cy="0" r="1" fill="rgba(255,255,255,0)"/>
  <circle cx="0" cy="1" r="1" fill="rgba(255,255,255,0)"/>
  <circle cx="1" cy="1" r="1" fill="rgba(248,184,162,1)"/>
  <circle cx="2" cy="1" r="1" fill="rgba(239,78,8,1)"/>
  <circle cx="3" cy="1" r="1" fill="rgba(240,80,8,1)"/>
  <circle cx="4" cy="1" r="1" fill="rgba(240,84,8,1)"/>
  <circle cx="5" cy="1" r="1" fill="rgba(240,88,8,1)"/>
  <circle cx="6" cy="1" r="1" fill="rgba(240,88,8,1)"/>
  <circle cx="7" cy="1" r="1" fill="rgba(240,84,8,1)"/>
  <circle cx="8" cy="1" r="1" fill="rgba(240,80,8,1)"/>
  <circle cx="9" cy="1" r="1" fill="rgba(239,78,8,1)"/>
  <circle cx="10" cy="1" r="1" fill="rgba(248,184,162,1)"/>
  <circle cx="11" cy="1" r="1" fill="rgba(255,255,255,0)"/>
  <circle cx="0" cy="2" r="1" fill="rgba(255,255,255,0)"/>
  <circle cx="1" cy="2" r="1" fill="rgba(239,81,4,1)"/>
  <circle cx="2" cy="2" r="1" fill="rgba(248,168,109,1)"/>
  <circle cx="3" cy="2" r="1" fill="rgba(249,182,131,1)"/>
  <circle cx="4" cy="2" r="1" fill="rgba(249,157,91,1)"/>
  <circle cx="5" cy="2" r="1" fill="rgba(248,143,70,1)"/>
  <circle cx="6" cy="2" r="1" fill="rgba(248,141,66,1)"/>
  <circle cx="7" cy="2" r="1" fill="rgba(248,152,81,1)"/>
  <circle cx="8" cy="2" r="1" fill="rgba(249,175,119,1)"/>
  <circle cx="9" cy="2" r="1" fill="rgba(248,158,92,1)"/>
  <circle cx="10" cy="2" r="1" fill="rgba(239,81,4,1)"/>
  <circle cx="11" cy="2" r="1" fill="rgba(255,255,255,0)"/>
  <circle cx="0" cy="3" r="1" fill="rgba(255,255,255,0)"/>
  <circle cx="1" cy="3" r="1" fill="rgba(241,88,12,1)"/>
  <circle cx="2" cy="3" r="1" fill="rgba(253,188,141,1)"/>
  <circle cx="3" cy="3" r="1" fill="white"/>
  <circle cx="4" cy="3" r="1" fill="rgba(254,220,196,1)"/>
  <circle cx="5" cy="3" r="1" fill="rgba(253,133,57,1)"/>
  <circle cx="6" cy="3" r="1" fill="rgba(253,130,52,1)"/>
  <circle cx="7" cy="3" r="1" fill="rgba(254,217,191,1)"/>
  <circle cx="8" cy="3" r="1" fill="white"/>
  <circle cx="9" cy="3" r="1" fill="rgba(253,180,127,1)"/>
  <circle cx="10" cy="3" r="1" fill="rgba(241,88,12,1)"/>
  <circle cx="11" cy="3" r="1" fill="rgba(255,255,255,0)"/>
  <circle cx="0" cy="4" r="1" fill="rgba(255,255,255,0)"/>
  <circle cx="1" cy="4" r="1" fill="rgba(241,85,8,1)"/>
  <circle cx="2" cy="4" r="1" fill="rgba(252,129,50,1)"/>
  <circle cx="3" cy="4" r="1" fill="rgba(254,200,162,1)"/>
  <circle cx="4" cy="4" r="1" fill="white"/>
  <circle cx="5" cy="4" r="1" fill="rgba(253,192,149,1)"/>
  <circle cx="6" cy="4" r="1" fill="rgba(253,189,143,1)"/>
  <circle cx="7" cy="4" r="1" fill="white"/>
  <circle cx="8" cy="4" r="1" fill="rgba(254,188,142,1)"/>
  <circle cx="9" cy="4" r="1" fill="rgba(251,100,3,1)"/>
  <circle cx="10" cy="4" r="1" fill="rgba(241,85,8,1)"/>
  <circle cx="11" cy="4" r="1" fill="rgba(255,255,255,0)"/>
  <circle cx="0" cy="5" r="1" fill="rgba(255,255,255,0)"/>
  <circle cx="1" cy="5" r="1" fill="rgba(241,88,8,1)"/>
  <circle cx="2" cy="5" r="1" fill="rgba(251,112,23,1)"/>
  <circle cx="3" cy="5" r="1" fill="rgba(253,115,22,1)"/>
  <circle cx="4" cy="5" r="1" fill="rgba(254,223,202,1)"/>
  <circle cx="5" cy="5" r="1" fill="white"/>
  <circle cx="6" cy="5" r="1" fill="white"/>
  <circle cx="7" cy="5" r="1" fill="rgba(254,223,202,1)"/>
  <circle cx="8" cy="5" r="1" fill="rgba(253,109,12,1)"/>
  <circle cx="9" cy="5" r="1" fill="rgba(251,98,0,1)"/>
  <circle cx="10" cy="5" r="1" fill="rgba(241,88,8,1)"/>
  <circle cx="11" cy="5" r="1" fill="rgba(255,255,255,0)"/>
  <circle cx="0" cy="6" r="1" fill="rgba(255,255,255,0)"/>
  <circle cx="1" cy="6" r="1" fill="rgba(241,88,8,1)"/>
  <circle cx="2" cy="6" r="1" fill="rgba(251,98,0,1)"/>
  <circle cx="3" cy="6" r="1" fill="rgba(253,109,12,1)"/>
  <circle cx="4" cy="6" r="1" fill="rgba(254,223,202,1)"/>
  <circle cx="5" cy="6" r="1" fill="white"/>
  <circle cx="6" cy="6" r="1" fill="white"/>
  <circle cx="7" cy="6" r="1" fill="rgba(254,223,202,1)"/>
  <circle cx="8" cy="6" r="1" fill="rgba(253,109,12,1)"/>
  <circle cx="9" cy="6" r="1" fill="rgba(251,98,0,1)"/>
  <circle cx="10" cy="6" r="1" fill="rgba(241,88,8,1)"/>
  <circle cx="11" cy="6" r="1" fill="rgba(255,255,255,0)"/>
  <circle cx="0" cy="7" r="1" fill="rgba(255,255,255,0)"/>
  <circle cx="1" cy="7" r="1" fill="rgba(241,85,8,1)"/>
  <circle cx="2" cy="7" r="1" fill="rgba(251,100,3,1)"/>
  <circle cx="3" cy="7" r="1" fill="rgba(254,187,141,1)"/>
  <circle cx="4" cy="7" r="1" fill="white"/>
  <circle cx="5" cy="7" r="1" fill="rgba(253,185,137,1)"/>
  <circle cx="6" cy="7" r="1" fill="rgba(253,185,137,1)"/>
  <circle cx="7" cy="7" r="1" fill="white"/>
  <circle cx="8" cy="7" r="1" fill="rgba(254,187,141,1)"/>
  <circle cx="9" cy="7" r="1" fill="rgba(251,100,3,1)"/>
  <circle cx="10" cy="7" r="1" fill="rgba(241,85,8,1)"/>
  <circle cx="11" cy="7" r="1" fill="rgba(255,255,255,0)"/>
  <circle cx="0" cy="8" r="1" fill="rgba(255,255,255,0)"/>
  <circle cx="1" cy="8" r="1" fill="rgba(241,88,12,1)"/>
  <circle cx="2" cy="8" r="1" fill="rgba(253,171,111,1)"/>
  <circle cx="3" cy="8" r="1" fill="white"/>
  <circle cx="4" cy="8" r="1" fill="rgba(254,209,178,1)"/>
  <circle cx="5" cy="8" r="1" fill="rgba(253,98,0,1)"/>
  <circle cx="6" cy="8" r="1" fill="rgba(253,98,0,1)"/>
  <circle cx="7" cy="8" r="1" fill="rgba(254,209,178,1)"/>
  <circle cx="8" cy="8" r="1" fill="white"/>
  <circle cx="9" cy="8" r="1" fill="rgba(253,171,111,1)"/>
  <circle cx="10" cy="8" r="1" fill="rgba(241,88,12,1)"/>
  <circle cx="11" cy="8" r="1" fill="rgba(255,255,255,0)"/>
  <circle cx="0" cy="9" r="1" fill="rgba(255,255,255,0)"/>
  <circle cx="1" cy="9" r="1" fill="rgba(239,81,4,1)"/>
  <circle cx="2" cy="9" r="1" fill="rgba(246,137,56,1)"/>
  <circle cx="3" cy="9" r="1" fill="rgba(247,153,82,1)"/>
  <circle cx="4" cy="9" r="1" fill="rgba(246,119,26,1)"/>
  <circle cx="5" cy="9" r="1" fill="rgba(246,101,0,1)"/>
  <circle cx="6" cy="9" r="1" fill="rgba(246,101,0,1)"/>
  <circle cx="7" cy="9" r="1" fill="rgba(246,119,26,1)"/>
  <circle cx="8" cy="9" r="1" fill="rgba(247,153,82,1)"/>
  <circle cx="9" cy="9" r="1" fill="rgba(246,137,56,1)"/>
  <circle cx="10" cy="9" r="1" fill="rgba(239,81,4,1)"/>
  <circle cx="11" cy="9" r="1" fill="rgba(255,255,255,0)"/>
  <circle cx="0" cy="10" r="1" fill="rgba(255,255,255,0)"/>
  <circle cx="1" cy="10" r="1" fill="rgba(248,184,162,1)"/>
  <circle cx="2" cy="10" r="1" fill="rgba(239,78,8,1)"/>
  <circle cx="3" cy="10" r="1" fill="rgba(240,80,8,1)"/>
  <circle cx="4" cy="10" r="1" fill="rgba(240,84,8,1)"/>
  <circle cx="5" cy="10" r="1" fill="rgba(240,88,8,1)"/>
  <circle cx="6" cy="10" r="1" fill="rgba(240,88,8,1)"/>
  <circle cx="7" cy="10" r="1" fill="rgba(240,84,8,1)"/>
  <circle cx="8" cy="10" r="1" fill="rgba(240,80,8,1)"/>
  <circle cx="9" cy="10" r="1" fill="rgba(239,78,8,1)"/>
  <circle cx="10" cy="10" r="1" fill="rgba(248,184,162,1)"/>
  <circle cx="11" cy="10" r="1" fill="rgba(255,255,255,0)"/>
  <circle cx="0" cy="11" r="1" fill="rgba(255,255,255,0)"/>
  <circle cx="1" cy="11" r="1" fill="rgba(255,255,255,0)"/>
  <circle cx="2" cy="11" r="1" fill="rgba(255,255,255,0)"/>
  <circle cx="3" cy="11" r="1" fill="rgba(255,255,255,0)"/>
  <circle cx="4" cy="11" r="1" fill="rgba(255,255,255,0)"/>
  <circle cx="5" cy="11" r="1" fill="rgba(255,255,255,0)"/>
  <circle cx="6" cy="11" r="1" fill="rgba(255,255,255,0)"/>
  <circle cx="7" cy="11" r="1" fill="rgba(255,255,255,0)"/>
  <circle cx="8" cy="11" r="1" fill="rgba(255,255,255,0)"/>
  <circle cx="9" cy="11" r="1" fill="rgba(255,255,255,0)"/>
  <circle cx="10" cy="11" r="1" fill="rgba(255,255,255,0)"/>
  <circle cx="11" cy="11" r="1" fill="rgba(255,255,255,0)"/>
</svg>
